# AST/ASF file generated using VICON BodyLanguage
# -----------------------------------------------
:version 1.10
:name VICON
:units
  mass 1.0
  length 0.45
  angle deg
:documentation
   .ast/.asf automatically generated from VICON data using
   VICON BodyBuilder and BodyLanguage model FoxedUp or BRILLIANT.MOD
:root
   order TX TY TZ RX RY RZ
   axis XYZ
   position 0 0 0  
   orientation 0 0 0 
:bonedata
  begin
     id 1 
     name lhipjoint
     direction 0.700308 -0.549349 0.455834 
     length 2.59063 
     axis 0 0 0  XYZ
  end
  begin
     id 2 
     name lfemur
     direction 0.34202 -0.939693 0  
     length 6.31066  
     axis 0 0 20  XYZ
    dof rx ry rz
    limits (-160.0 20.0)
           (-70.0 70.0)
           (-60.0 70.0)
  end
  begin
     id 3 
     name ltibia
     direction 0.34202 -0.939693 0   
     length 7.36093   
     axis 0 0 20   XYZ
    dof rx
    limits (-10.0 170.0)
  end
  begin
     id 4 
     name lfoot
     direction 0.0905332 -0.248738 0.96433   
     length 2.0233   
     axis -90 7.62852e-016 20   XYZ
    dof rx rz
    limits (-45.0 90.0)
           (-70.0 20.0)
  end
  begin
     id 5 
     name ltoes
     direction 1.53573e-011 -4.21855e-011 1   
     length 1.01524   
     axis -90 7.62852e-016 20   XYZ
    dof rx
    limits (-90.0 20.0)
  end
  begin
     id 6 
     name rhipjoint
     direction -0.61416 -0.607328 0.503944   
     length 2.34332  
     axis 0 0 0  XYZ 
  end
  begin
     id 7 
     name rfemur
     direction -0.34202 -0.939693 0   
     length 6.58548   
     axis 0 0 -20   XYZ
    dof rx ry rz
    limits (-160.0 20.0)
           (-70.0 70.0)
           (-70.0 60.0)
  end
  begin
     id 8 
     name rtibia
     direction -0.34202 -0.939693 0   
     length 7.20707   
     axis 0 0 -20   XYZ
    dof rx
    limits (-10.0 170.0)
 end
 begin
     id 9 
     name rfoot
     direction -0.136772 -0.375778 0.916561   
     length 1.92184  
     axis -90 -7.62852e-016 -20   XYZ
    dof rx rz
    limits (-45.0 90.0)
           (-20.0 70.0)
  end
  begin
     id 10 
     name rtoes
     direction -1.53535e-011 -4.21828e-011 1   
     length 0.951089   
     axis -90 -7.62852e-016 -20   XYZ
    dof rx
    limits (-90.0 20.0)
  end
  begin
     id 11 
     name lowerback
     direction -0.0444974 0.988086 -0.147332   
     length 1.9609   
     axis 0 0 0   XYZ
    dof rx ry rz
    limits (-20.0 45.0)
           (-30.0 30.0)
           (-30.0 30.0)
  end
  begin
     id 12 
     name upperback
     direction 0.00613146 0.999513 0.0306081   
     length 1.94944   
     axis 0 0 0   XYZ
    dof rx ry rz
    limits (-20.0 45.0)
           (-30.0 30.0)
           (-30.0 30.0)
  end
  begin
     id 13 
     name thorax
     direction 0.0254621 0.994518 0.101418   
     length 2.0119   
     axis 0 0 0   XYZ
    dof rx ry rz
    limits (-20.0 45.0)
           (-30.0 30.0)
           (-30.0 30.0)
  end
  begin
     id 14 
     name lowerneck
     direction 0.0168698 0.977854 0.208608   
     length 1.6375   
     axis 0 0 0   XYZ
    dof rx ry rz
    limits (-20.0 45.0)
           (-30.0 30.0)
           (-30.0 30.0)
  end
  begin
     id 15 
     name upperneck
     direction -0.0283988 0.989338 -0.142843   
     length 1.6851   
     axis 0 0 0   XYZ
    dof rx ry rz
    limits (-20.0 45.0)
           (-30.0 30.0)
           (-30.0 30.0)
  end
  begin
     id 16
     name head
     direction -0.0129422 0.99741 -0.0707489  
     length 1.69029  
     axis 0 0 0   XYZ
    dof rx ry rz
    limits (-20.0 45.0)
           (-30.0 30.0)
           (-30.0 30.0)
  end
  begin
     id 17 
     name lclavicle
     direction 0.820295 0.564628 -0.0911715  
     length 3.16484  
     axis 0 0 0   XYZ
    dof ry rz
    limits (-20.0 10.0)
           (0.0 20.0)
  end
  begin
     id 18 
     name lhumerus
     direction 1 -4.48969e-011 1.00186e-027   
     length 5.17853   
     axis 180 -30 -90   XYZ
    dof rx ry rz
    limits (-60.0 90.0)
           (-90.0 90.0)
           (-90.0 90.0)
  end
  begin
     id 19
     name lradius
     direction 1 -4.48966e-011 -1.52922e-027   
     length 3.40399   
     axis 180 -30 -90   XYZ
    dof rx
    limits (-10.0 170.0)
  end
  begin
     id 20
     name lwrist
     direction 1 -4.48981e-011 -3.80893e-027   
     length 1.70199   
     axis 1.1049e-015 90 90   XYZ
    dof ry
    limits (-180.0 0.0)
 end
  begin
     id 21 
     name lhand
     direction 1 -4.48957e-011 -7.61786e-027   
     length 0.708964   
     axis 4.86085e-015 90 90   XYZ
    dof rx rz
    limits (-90.0 90.0)
           (-45.0 45.0)
  end
  begin
     id 22 
     name lfingers
     direction 1 -4.48929e-011 -1.52357e-026   
     length 0.571585   
     axis 9.7217e-015 90 90   XYZ
    dof rx
    limits (0.0 90.0)
  end
  begin
     id 23
     name lthumb
     direction 0.707107 -6.34905e-011 0.707107   
     length 0.820685   
     axis -90 45 2.85299e-015   XYZ
    dof rx rz
    limits (-45.0 45.0)
           (-45.0 45.0)
  end
  begin
     id 24 
     name rclavicle
     direction -0.858602 0.463947 -0.218075   
     length 3.35137  
     axis 0 0 0   XYZ 
    dof ry rz
    limits (-10.0 20.0)
           (-20.0 0.0)
  end
  begin
     id 25 
     name rhumerus
     direction -1 -4.48969e-011 -1.98511e-027  
     length 5.42351   
     axis 180 30 90   XYZ
    dof rx ry rz
    limits (-90.0 60.0)
           (-90.0 90.0)
           (-90.0 90.0)
  end
  begin
     id 26 
     name rradius
     direction -1 -4.48961e-011 -2.82624e-027   
     length 3.42066   
     axis 180 30 90   XYZ
    dof rx
    limits (-10.0 170.0)
  end
  begin
     id 27 
     name rwrist
     direction -1 -4.48966e-011 -3.80893e-027   
     length 1.71033   
     axis 1.1049e-015 -90 -90   XYZ
    dof ry
    limits (-180.0 0.0)
  end
  begin
     id 28
     name rhand
     direction -1 -4.48964e-011 -7.61786e-027   
     length 0.743608   
     axis 4.86085e-015 -90 -90   XYZ
    dof rx rz
    limits (-90.0 90.0)
           (-45.0 45.0)
  end
  begin
     id 29
     name rfingers
     direction -1 -4.48961e-011 -1.52357e-026   
     length 0.599516   
     axis 9.7217e-015 -90 -90   XYZ
    dof rx
    limits (0.0 90.0)
  end
  begin
     id 30
     name rthumb
     direction -0.707107 -6.34913e-011 0.707107   
     length 0.860789   
     axis -90 -45 -2.85299e-015   XYZ
    dof rx rz
    limits (-45.0 45.0)
           (-45.0 45.0)
  end
:hierarchy
  begin
    root lhipjoint rhipjoint lowerback
    lhipjoint lfemur
    lfemur ltibia
    ltibia lfoot
    lfoot ltoes
    rhipjoint rfemur
    rfemur rtibia
    rtibia rfoot
    rfoot rtoes
    lowerback upperback
    upperback thorax
    thorax lowerneck lclavicle rclavicle
    lowerneck upperneck
    upperneck head
    lclavicle lhumerus
    lhumerus lradius
    lradius lwrist
    lwrist lhand lthumb
    lhand lfingers
    rclavicle rhumerus
    rhumerus rradius
    rradius rwrist
    rwrist rhand rthumb
    rhand rfingers
  end

#!OML:ASF E:\mmandel\Project 1\Capture day 1\Session 2\Subject.ASF
:FULLY-SPECIFIED
:DEGREES
242
root -3.9572 2.66437 1.11737 141.372 21.6221 -103.19
lowerback 26.1993 -0.6665 -10.427
upperback 3.76801 -3.77733 3.51315
thorax -9.38196 -1.55142 11.3696
lowerneck -2.47308 -4.71794 3.57639
upperneck 24.087 4.57777 -34.9187
head 8.72162 0.678132 -13.499
rclavicle -1.59028e-014 -4.13472e-014
rhumerus 37.7791 73.748 -79.473
rradius 58.7029
rwrist -20.2018
rhand -14.359 37.8182
rfingers 7.12502
rthumb 11.7829 8.16967
lclavicle -1.59028e-014 -4.13472e-014
lhumerus 40.1082 -2.65017 31.4112
lradius 18.1391
lwrist -16.9318
lhand -6.44403 -3.57399
lfingers 7.12502
lthumb 19.4055 25.4777
rfemur -49.822 -2.8004 24.3321
rtibia 114.944
rfoot 7.87803 2.60498
rtoes -15.3063
lfemur -21.773 16.0052 -18.1374
ltibia 44.935
lfoot 7.20577 3.58963
ltoes 13.7174
243
root -3.93794 2.64834 1.13759 141.401 22.2227 -103.414
lowerback 26.2238 -0.910048 -11.0287
upperback 3.16638 -4.20369 4.15433
thorax -9.47817 -1.72546 11.9135
lowerneck -1.46025 -4.63033 2.79116
upperneck 24.0495 4.95773 -35.0801
head 8.60951 0.926777 -13.3548
rclavicle -8.90555e-014 1.00187e-013
rhumerus 36.2288 75.3678 -80.684
rradius 58.8858
rwrist -20.0896
rhand -13.5349 37.8396
rfingers 7.12502
rthumb 12.5776 8.23826
lclavicle -8.90555e-014 1.00187e-013
lhumerus 38.1486 -2.14779 31.4885
lradius 18.0728
lwrist -17.1489
lhand -6.48997 -3.65436
lfingers 7.12502
lthumb 19.3613 25.4018
rfemur -49.4932 -3.01302 24.3188
rtibia 114.748
rfoot 7.98491 2.39769
rtoes -14.9408
lfemur -22.0943 16.3903 -17.863
ltibia 45.3152
lfoot 7.07316 3.52087
ltoes 13.9583
244
root -3.92098 2.6352 1.1589 141.318 22.5985 -104.021
lowerback 26.0458 -0.862642 -11.37
upperback 3.10419 -4.22641 3.93835
thorax -9.43961 -1.71737 11.8589
lowerneck -1.56996 -4.64877 2.7309
upperneck 24.6894 5.01246 -34.7129
head 8.86255 0.911025 -13.2472
rclavicle 8.26944e-014 5.1684e-014
rhumerus 35.436 75.4595 -81.4444
rradius 58.9562
rwrist -19.8228
rhand -12.6008 37.9856
rfingers 7.12502
rthumb 13.478 8.4417
lclavicle 8.26944e-014 5.1684e-014
lhumerus 37.7517 -1.56492 31.5512
lradius 18.0835
lwrist -17.6399
lhand -6.3861 -3.96627
lfingers 7.12502
lthumb 19.4612 25.0798
rfemur -49.2265 -3.1441 23.8192
rtibia 114.603
rfoot 8.18494 2.1563
rtoes -13.634
lfemur -22.3978 16.8352 -18.0389
ltibia 45.6714
lfoot 6.95242 3.34915
ltoes 13.9297
245
root -3.89928 2.6234 1.17948 141.137 23.0289 -104.399
lowerback 26.0208 -0.810135 -11.5225
upperback 3.16017 -4.21089 3.80955
thorax -9.36423 -1.71586 11.7876
lowerneck -1.86426 -4.60818 2.50262
upperneck 25.4516 5.16274 -34.1024
head 9.22305 0.916531 -13.0031
rclavicle -6.36111e-015 1.59028e-015
rhumerus 35.2819 75.5219 -81.4869
rradius 59.116
rwrist -19.4525
rhand -11.9587 37.9621
rfingers 7.12502
rthumb 14.0968 8.46027
lclavicle -6.36111e-015 1.59028e-015
lhumerus 37.3973 -1.02245 31.5547
lradius 18.1993
lwrist -18.0247
lhand -6.28601 -4.27675
lfingers 7.12502
lthumb 19.5574 24.7596
rfemur -48.6111 -3.35389 23.5758
rtibia 114.395
rfoot 8.16782 2.0656
rtoes -13.0018
lfemur -22.5291 17.2512 -17.9117
ltibia 46.0011
lfoot 6.87668 3.02883
ltoes 13.8709
246
root -3.87795 2.61219 1.20046 141.039 23.5876 -104.581
lowerback 25.9734 -0.760111 -11.4874
upperback 3.20928 -4.13927 3.77675
thorax -9.31163 -1.69365 11.7049
lowerneck -2.12467 -4.60199 2.30116
upperneck 26.1714 5.29049 -33.6214
head 9.56341 0.917812 -12.8266
rclavicle -6.36111e-015 8.26944e-014
rhumerus 35.9886 75.6365 -80.6031
rradius 59.2137
rwrist -19.1864
rhand -11.6733 37.8968
rfingers 7.12502
rthumb 14.3718 8.41432
lclavicle -6.36111e-015 8.26944e-014
lhumerus 37.111 -0.746667 31.4209
lradius 18.2136
lwrist -18.1366
lhand -6.29354 -4.34612
lfingers 7.12502
lthumb 19.5502 24.6909
rfemur -48.0353 -3.55716 23.6092
rtibia 114.205
rfoot 7.96765 2.07142
rtoes -14.3532
lfemur -22.6648 17.7537 -17.5436
ltibia 46.2536
lfoot 6.89618 2.73546
ltoes 13.9661
247
root -3.86275 2.60263 1.22301 140.978 24.0376 -105.041
lowerback 25.8013 -0.793333 -12.129
upperback 3.14667 -4.31146 4.01115
thorax -9.19228 -1.75527 12.3673
lowerneck -2.27387 -4.51286 1.63802
upperneck 26.5302 5.76609 -33.5989
head 9.87192 1.07516 -12.7134
rclavicle 6.36111e-014 -9.78021e-014
rhumerus 36.9313 76.6359 -79.1733
rradius 59.3453
rwrist -18.9827
rhand -11.1235 37.9887
rfingers 7.12502
rthumb 14.9015 8.54464
lclavicle 6.36111e-014 -9.78021e-014
lhumerus 35.8734 0.0158418 31.6322
lradius 18.3288
lwrist -18.4149
lhand -6.26269 -4.36214
lfingers 7.12502
lthumb 19.5798 24.6719
rfemur -47.7608 -3.73785 23.322
rtibia 114.104
rfoot 7.78612 2.12564
rtoes -15.8674
lfemur -22.8536 18.152 -17.536
ltibia 46.3934
lfoot 6.98691 2.63525
ltoes 14.2395
248
root -3.84757 2.59132 1.24516 140.845 24.3969 -105.65
lowerback 25.9333 -1.15154 -13.8584
upperback 2.89441 -5.18479 4.91086
thorax -9.07035 -2.0981 14.6298
lowerneck -1.93707 -3.98873 -0.69813
upperneck 25.8273 7.01929 -33.6673
head 9.9021 1.5962 -12.0771
rclavicle 8.5875e-014 -1.17681e-013
rhumerus 40.2831 79.8604 -74.8804
rradius 59.8148
rwrist -19.0716
rhand -10.4751 37.834
rfingers 7.12502
rthumb 15.5261 8.4373
lclavicle 8.5875e-014 -1.17681e-013
lhumerus 32.3922 2.08061 32.3509
lradius 18.5371
lwrist -19.2479
lhand -6.29549 -4.43899
lfingers 7.12502
lthumb 19.5483 24.5983
rfemur -47.4526 -3.93618 22.8098
rtibia 113.989
rfoot 7.59852 2.23863
rtoes -16.0623
lfemur -22.9034 18.3474 -17.7076
ltibia 46.4043
lfoot 6.95263 2.57516
ltoes 14.398
249
root -3.83178 2.57587 1.2682 140.718 24.8297 -106.033
lowerback 26.1292 -1.14789 -14.469
upperback 2.65133 -5.36258 5.05939
thorax -9.30415 -2.1113 15.2275
lowerneck -1.65119 -3.88085 -1.12113
upperneck 26.2017 7.27314 -33.2976
head 10.0268 1.71961 -11.8335
rclavicle 1.43125e-013 -2.06736e-013
rhumerus 40.4132 80.7403 -74.3535
rradius 60.0595
rwrist -19.046
rhand -10.1194 37.4651
rfingers 7.12502
rthumb 15.8687 8.09535
lclavicle 1.43125e-013 -2.06736e-013
lhumerus 31.4248 2.38919 32.1908
lradius 18.2926
lwrist -19.4835
lhand -6.40782 -4.52115
lfingers 7.12502
lthumb 19.4403 24.527
rfemur -47.0327 -4.11048 22.5033
rtibia 113.83
rfoot 7.48701 2.19683
rtoes -15.4454
lfemur -22.8635 18.5332 -17.6267
ltibia 46.3621
lfoot 6.85631 2.41872
ltoes 14.2845
250
root -3.81797 2.55883 1.29055 140.611 25.1771 -106.468
lowerback 25.4497 -0.639228 -12.6178
upperback 3.1377 -4.23789 3.50234
thorax -9.04028 -1.71184 12.0205
lowerneck -2.6648 -4.45689 1.09692
upperneck 28.3138 5.82242 -31.7902
head 10.5783 1.00407 -11.967
rclavicle 4.13472e-014 9.78021e-014
rhumerus 38.7035 76.8241 -76.7792
rradius 59.7042
rwrist -18.7114
rhand -9.7087 37.4501
rfingers 7.12502
rthumb 16.2641 8.11221
lclavicle 4.13472e-014 9.78021e-014
lhumerus 35.5638 1.00643 31.1831
lradius 17.7639
lwrist -19.3247
lhand -6.37444 -4.59515
lfingers 7.12502
lthumb 19.4724 24.4498
rfemur -46.674 -4.35795 22.07
rtibia 113.691
rfoot 7.45612 2.1477
rtoes -14.9886
lfemur -22.9326 18.79 -17.6693
ltibia 46.347
lfoot 6.83134 2.24162
ltoes 13.896
251
root -3.80142 2.54634 1.31125 140.5 25.5848 -106.916
lowerback 25.1755 -0.406272 -12.2005
upperback 3.49613 -3.85046 2.62859
thorax -9.08189 -1.51986 11.3155
lowerneck -3.20748 -4.64517 1.84145
upperneck 29.3881 5.36973 -31.0943
head 10.9603 0.779743 -11.9875
rclavicle 3.81667e-014 -8.74653e-014
rhumerus 38.4186 75.6488 -77.1459
rradius 59.5499
rwrist -18.5791
rhand -9.09981 37.6291
rfingers 7.12502
rthumb 16.8504 8.34021
lclavicle 3.81667e-014 -8.74653e-014
lhumerus 36.7651 1.04425 30.9403
lradius 17.628
lwrist -19.676
lhand -6.20236 -4.67726
lfingers 7.12502
lthumb 19.6378 24.3509
rfemur -46.254 -4.53717 21.7439
rtibia 113.509
rfoot 7.4687 2.16081
rtoes -15.3356
lfemur -23.061 19.0637 -17.6666
ltibia 46.4267
lfoot 6.87228 2.1052
ltoes 13.5395
